<svg width="16" height="16" viewBox="0 0 16 16" fill="none" xmlns="http://www.w3.org/2000/svg">
<path fill-rule="evenodd" clip-rule="evenodd" d="M15.2848 0.08904C15.4196 0.182448 15.5 0.336013 15.5 0.500003V15.5C15.5 15.7761 15.2761 16 15 16H12C11.7239 16 11.5 15.7761 11.5 15.5V14H10.5V15.5C10.5 15.7761 10.2761 16 10 16H1C0.723858 16 0.5 15.7761 0.5 15.5V9.5C0.5 9.25558 0.676707 9.04699 0.917801 9.00681L6.5 8.07644V3.5C6.5 3.29158 6.62929 3.10502 6.82444 3.03184L14.8244 0.0318383C14.978 -0.0257423 15.15 -0.00436764 15.2848 0.08904ZM7.5 3.8465V8.5C7.5 8.74442 7.32329 8.95302 7.0822 8.9932L1.5 9.92357V15H9.5V13.5C9.5 13.2239 9.72386 13 10 13H12C12.2761 13 12.5 13.2239 12.5 13.5V15H14.5V1.2215L7.5 3.8465Z" fill="#525B75"/>
<path fill-rule="evenodd" clip-rule="evenodd" d="M6.5 15.5V8.5H7.5V15.5H6.5Z" fill="#525B75"/>
<path d="M2.5 11H3.5V12H2.5V11Z" fill="#525B75"/>
<path d="M4.5 11H5.5V12H4.5V11Z" fill="#525B75"/>
<path d="M2.5 13H3.5V14H2.5V13Z" fill="#525B75"/>
<path d="M4.5 13H5.5V14H4.5V13Z" fill="#525B75"/>
<path d="M10.5 3H11.5V4H10.5V3Z" fill="#525B75"/>
<path d="M12.5 3H13.5V4H12.5V3Z" fill="#525B75"/>
<path d="M8.5 5H9.5V6H8.5V5Z" fill="#525B75"/>
<path d="M10.5 5H11.5V6H10.5V5Z" fill="#525B75"/>
<path d="M12.5 5H13.5V6H12.5V5Z" fill="#525B75"/>
<path d="M10.5 7H11.5V8H10.5V7Z" fill="#525B75"/>
<path d="M12.5 7H13.5V8H12.5V7Z" fill="#525B75"/>
<path d="M8.5 7H9.5V8H8.5V7Z" fill="#525B75"/>
<path d="M8.5 9H9.5V10H8.5V9Z" fill="#525B75"/>
<path d="M10.5 9H11.5V10H10.5V9Z" fill="#525B75"/>
<path d="M12.5 9H13.5V10H12.5V9Z" fill="#525B75"/>
<path d="M8.5 11H9.5V12H8.5V11Z" fill="#525B75"/>
<path d="M10.5 11H11.5V12H10.5V11Z" fill="#525B75"/>
<path d="M12.5 11H13.5V12H12.5V11Z" fill="#525B75"/>
</svg>
