<svg width="18" height="18" viewBox="0 0 18 18" fill="none" xmlns="http://www.w3.org/2000/svg">
<path d="M9.27601 16.7767C5.13388 16.7767 1.77602 13.4189 1.77602 9.27674C1.77602 5.13461 5.13388 1.77675 9.27601 1.77675C13.4181 1.77675 16.776 5.13461 16.776 9.27674C16.776 13.4189 13.4181 16.7767 9.27601 16.7767ZM9.27601 17.8482C14.0099 17.8482 17.8474 14.0106 17.8474 9.27674C17.8474 4.54288 14.0099 0.705322 9.27601 0.705322C4.54215 0.705322 0.70459 4.54288 0.70459 9.27674C0.70459 14.0106 4.54215 17.8482 9.27601 17.8482Z" fill="#48A176"/>
<path d="M12.4578 6.02996C12.4502 6.03754 12.4431 6.04557 12.4365 6.054L8.71608 10.7947L6.47302 8.55163C6.15921 8.23781 5.65042 8.23781 5.3366 8.55163C5.02279 8.86544 5.02279 9.37423 5.3366 9.68805L8.17208 12.5235C8.48589 12.8373 8.99469 12.8373 9.3085 12.5235C9.31549 12.5165 9.32209 12.5092 9.32826 12.5015L13.6056 7.15475C13.908 6.84012 13.9042 6.33993 13.5942 6.02996C13.2804 5.71615 12.7716 5.71615 12.4578 6.02996Z" fill="#48A176"/>
</svg>
