<svg width="22" height="22" viewBox="0 0 22 22" fill="none" xmlns="http://www.w3.org/2000/svg">
<rect x="1" y="1" width="20" height="20" rx="2" stroke="#9DA9BB" stroke-width="2" stroke-linejoin="round"/>
<path d="M16.625 3.125C17.8676 3.125 18.875 4.13236 18.875 5.375V16.625C18.875 17.8676 17.8676 18.875 16.625 18.875H5.375C4.13236 18.875 3.125 17.8676 3.125 16.625V5.375C3.125 4.13236 4.13236 3.125 5.375 3.125H16.625ZM5.375 2C3.51104 2 2 3.51104 2 5.375V16.625C2 18.489 3.51104 20 5.375 20H16.625C18.489 20 20 18.489 20 16.625V5.375C20 3.51104 18.489 2 16.625 2H5.375Z" fill="white"/>
</svg>
