<svg width="320" height="39" viewBox="0 0 320 39" fill="none" xmlns="http://www.w3.org/2000/svg">
<rect x="-0.5" y="0.5" width="319" height="38" rx="17.5" transform="matrix(-1 0 0 1 319 0)" fill="white"/>
<rect x="-0.5" y="0.5" width="319" height="38" rx="17.5" transform="matrix(-1 0 0 1 319 0)" stroke="#D8E2EE"/>
<g clip-path="url(#clip0_247_2243)">
<path d="M301.742 21.3439C302.533 20.2673 303 18.9382 303 17.5C303 13.9101 300.09 11 296.5 11C292.91 11 290 13.9101 290 17.5C290 21.0899 292.91 24 296.5 24C297.939 24 299.268 23.5327 300.345 22.7415L300.344 22.7422C300.373 22.7822 300.406 22.8204 300.442 22.8566L304.293 26.7071C304.683 27.0976 305.317 27.0976 305.707 26.7071C306.098 26.3166 306.098 25.6834 305.707 25.2929L301.857 21.4424C301.82 21.4062 301.782 21.3734 301.742 21.3439ZM302 17.5C302 20.5376 299.538 23 296.5 23C293.462 23 291 20.5376 291 17.5C291 14.4624 293.462 12 296.5 12C299.538 12 302 14.4624 302 17.5Z" fill="#B6C2D2"/>
<path d="M255.399 13.888C255.164 13.888 254.961 13.8133 254.791 13.664C254.631 13.5147 254.551 13.2853 254.551 12.976C254.551 12.656 254.631 12.4267 254.791 12.288C254.961 12.1387 255.164 12.064 255.399 12.064C255.644 12.064 255.847 12.1387 256.007 12.288C256.177 12.4373 256.263 12.6667 256.263 12.976C256.263 13.2747 256.177 13.504 256.007 13.664C255.847 13.8133 255.644 13.888 255.399 13.888ZM254.039 16.176C253.761 16.176 253.532 16.096 253.351 15.936C253.169 15.7653 253.079 15.504 253.079 15.152C253.079 14.8107 253.169 14.5547 253.351 14.384C253.532 14.2133 253.761 14.128 254.039 14.128C254.337 14.128 254.567 14.224 254.727 14.416C254.897 14.5973 254.983 14.8427 254.983 15.152C254.983 15.4613 254.897 15.712 254.727 15.904C254.567 16.0853 254.337 16.176 254.039 16.176ZM256.791 16.176C256.492 16.176 256.257 16.0907 256.087 15.92C255.916 15.7387 255.831 15.4827 255.831 15.152C255.831 14.832 255.916 14.5813 256.087 14.4C256.257 14.2187 256.492 14.128 256.791 14.128C257.089 14.128 257.319 14.224 257.479 14.416C257.649 14.5973 257.735 14.8427 257.735 15.152C257.735 15.4613 257.649 15.712 257.479 15.904C257.319 16.0853 257.089 16.176 256.791 16.176ZM253.159 24C252.22 24 251.473 23.7227 250.919 23.168C250.375 22.6027 250.103 21.8347 250.103 20.864C250.103 20.6187 250.119 20.3467 250.151 20.048C250.193 19.7493 250.247 19.4613 250.311 19.184C250.385 18.9067 250.46 18.6613 250.535 18.448H252.103C252.028 18.8107 251.969 19.1787 251.927 19.552C251.884 19.9253 251.863 20.2987 251.863 20.672C251.863 21.2267 252.001 21.6747 252.279 22.016C252.556 22.3573 252.919 22.528 253.367 22.528H258.919V16.192H260.631V22.528H262.743C262.796 22.528 262.823 22.5493 262.823 22.592V23.92C262.823 23.9733 262.796 24 262.743 24H253.159ZM262.576 24C262.523 24 262.496 23.9733 262.496 23.92V22.592C262.496 22.5493 262.523 22.528 262.576 22.528H269.312C269.174 22.3893 269.04 22.1973 268.912 21.952C268.795 21.7067 268.683 21.408 268.576 21.056C268.48 20.6933 268.39 20.2773 268.304 19.808C268.23 19.392 268.139 19.0347 268.032 18.736C267.926 18.4373 267.792 18.1973 267.632 18.016C267.483 17.8347 267.296 17.7067 267.072 17.632C266.859 17.5467 266.608 17.504 266.32 17.504C265.958 17.504 265.59 17.5573 265.216 17.664C264.854 17.76 264.47 17.9147 264.064 18.128L263.456 16.8C263.915 16.5227 264.395 16.3253 264.896 16.208C265.398 16.0907 265.92 16.032 266.464 16.032C266.806 16.032 267.11 16.0587 267.376 16.112C267.654 16.1547 267.899 16.2293 268.112 16.336C268.432 16.4853 268.71 16.688 268.944 16.944C269.179 17.1893 269.371 17.504 269.52 17.888C269.68 18.272 269.808 18.7467 269.904 19.312C269.99 19.856 270.086 20.3413 270.192 20.768C270.31 21.184 270.438 21.5413 270.576 21.84C270.715 22.1387 270.87 22.368 271.04 22.528H272.096C272.15 22.528 272.176 22.5493 272.176 22.592V23.92C272.176 23.9733 272.15 24 272.096 24H262.576ZM274.784 27.472C274.496 27.472 274.266 27.3813 274.096 27.2C273.925 27.0187 273.84 26.768 273.84 26.448C273.84 26.1173 273.92 25.8613 274.08 25.68C274.25 25.5093 274.485 25.424 274.784 25.424C275.093 25.424 275.328 25.5147 275.488 25.696C275.658 25.8773 275.744 26.128 275.744 26.448C275.744 26.7573 275.658 27.0027 275.488 27.184C275.317 27.376 275.082 27.472 274.784 27.472ZM271.936 24C271.882 24 271.856 23.9733 271.856 23.92V22.592C271.856 22.5493 271.882 22.528 271.936 22.528H274.016V16.192H275.76V24H271.936Z" fill="#B6C2D2"/>
</g>
<defs>
<clipPath id="clip0_247_2243">
<rect width="89" height="16" fill="white" transform="matrix(-1 0 0 1 306 11)"/>
</clipPath>
</defs>
</svg>
