<svg width="22" height="22" viewBox="0 0 22 22" fill="none" xmlns="http://www.w3.org/2000/svg">
<path d="M1.375 3.4375C1.375 2.29841 2.29841 1.375 3.4375 1.375L7.5625 1.375C8.70159 1.375 9.625 2.29841 9.625 3.4375V7.5625C9.625 8.70159 8.70159 9.625 7.5625 9.625H3.4375C2.29841 9.625 1.375 8.70159 1.375 7.5625L1.375 3.4375ZM3.4375 2.75C3.0578 2.75 2.75 3.0578 2.75 3.4375V7.5625C2.75 7.9422 3.0578 8.25 3.4375 8.25H7.5625C7.9422 8.25 8.25 7.9422 8.25 7.5625V3.4375C8.25 3.0578 7.9422 2.75 7.5625 2.75H3.4375ZM12.375 3.4375C12.375 2.29841 13.2984 1.375 14.4375 1.375L18.5625 1.375C19.7016 1.375 20.625 2.29841 20.625 3.4375V7.5625C20.625 8.70159 19.7016 9.625 18.5625 9.625H14.4375C13.2984 9.625 12.375 8.70159 12.375 7.5625V3.4375ZM14.4375 2.75C14.0578 2.75 13.75 3.0578 13.75 3.4375V7.5625C13.75 7.9422 14.0578 8.25 14.4375 8.25H18.5625C18.9422 8.25 19.25 7.9422 19.25 7.5625V3.4375C19.25 3.0578 18.9422 2.75 18.5625 2.75H14.4375ZM1.375 14.4375C1.375 13.2984 2.29841 12.375 3.4375 12.375H7.5625C8.70159 12.375 9.625 13.2984 9.625 14.4375V18.5625C9.625 19.7016 8.70159 20.625 7.5625 20.625H3.4375C2.29841 20.625 1.375 19.7016 1.375 18.5625L1.375 14.4375ZM3.4375 13.75C3.0578 13.75 2.75 14.0578 2.75 14.4375V18.5625C2.75 18.9422 3.0578 19.25 3.4375 19.25H7.5625C7.9422 19.25 8.25 18.9422 8.25 18.5625V14.4375C8.25 14.0578 7.9422 13.75 7.5625 13.75H3.4375ZM12.375 14.4375C12.375 13.2984 13.2984 12.375 14.4375 12.375H18.5625C19.7016 12.375 20.625 13.2984 20.625 14.4375V18.5625C20.625 19.7016 19.7016 20.625 18.5625 20.625H14.4375C13.2984 20.625 12.375 19.7016 12.375 18.5625V14.4375ZM14.4375 13.75C14.0578 13.75 13.75 14.0578 13.75 14.4375V18.5625C13.75 18.9422 14.0578 19.25 14.4375 19.25H18.5625C18.9422 19.25 19.25 18.9422 19.25 18.5625V14.4375C19.25 14.0578 18.9422 13.75 18.5625 13.75H14.4375Z" fill="#5D6E82"/>
</svg>
