<svg width="1849" height="17" viewBox="0 0 1849 17" fill="none" xmlns="http://www.w3.org/2000/svg">
<path d="M3.41513 6.665C3.24646 6.665 3.09979 6.61367 2.97513 6.511C2.85779 6.40833 2.79913 6.23967 2.79913 6.005C2.79913 5.77033 2.85779 5.60167 2.97513 5.499C3.09979 5.39633 3.24646 5.345 3.41513 5.345C3.60579 5.345 3.75613 5.40367 3.86613 5.521C3.97613 5.631 4.03113 5.79233 4.03113 6.005C4.03113 6.21767 3.97613 6.38267 3.86613 6.5C3.75613 6.61 3.60579 6.665 3.41513 6.665ZM5.31813 6.665C5.12746 6.665 4.97713 6.61 4.86713 6.5C4.75713 6.38267 4.70213 6.21767 4.70213 6.005C4.70213 5.79233 4.75713 5.631 4.86713 5.521C4.97713 5.40367 5.12746 5.345 5.31813 5.345C5.51613 5.345 5.66646 5.40733 5.76913 5.532C5.87913 5.64933 5.93413 5.807 5.93413 6.005C5.93413 6.203 5.87913 6.36433 5.76913 6.489C5.66646 6.60633 5.51613 6.665 5.31813 6.665ZM2.97513 12C2.34446 12 1.84213 11.8093 1.46813 11.428C1.10146 11.0467 0.918125 10.526 0.918125 9.866C0.918125 9.70467 0.929125 9.525 0.951125 9.327C0.973125 9.12167 1.00613 8.92367 1.05013 8.733C1.09413 8.535 1.14179 8.36267 1.19313 8.216H2.07313C2.02179 8.48 1.98146 8.744 1.95213 9.008C1.92279 9.272 1.90813 9.53233 1.90813 9.789C1.90813 10.1923 2.00346 10.5187 2.19413 10.768C2.38479 11.0173 2.63413 11.142 2.94213 11.142H6.89113V6.665H7.82613V12H2.97513ZM12.2956 11.142C12.3323 11.142 12.3506 11.1567 12.3506 11.186V11.945C12.3506 11.9817 12.3323 12 12.2956 12H9.86465V3.64H10.8436V11.142H12.2956ZM12.1901 12C12.1535 12 12.1351 11.9817 12.1351 11.945V11.186C12.1351 11.1567 12.1535 11.142 12.1901 11.142H13.5541C13.4148 10.7827 13.3121 10.449 13.2461 10.141C13.1801 9.82567 13.1471 9.53233 13.1471 9.261C13.1471 8.93833 13.1801 8.63033 13.2461 8.337C13.3121 8.04367 13.4111 7.76867 13.5431 7.512C13.8145 7.28467 14.1225 7.105 14.4671 6.973C14.8191 6.841 15.1821 6.775 15.5561 6.775C16.0108 6.775 16.4141 6.874 16.7661 7.072C17.1108 7.27733 17.3748 7.567 17.5581 7.941C17.7488 8.315 17.8441 8.73667 17.8441 9.206C17.8441 9.49933 17.8185 9.77067 17.7671 10.02C17.7158 10.262 17.6388 10.4893 17.5361 10.702C17.3235 11.12 17.0265 11.4427 16.6451 11.67C16.2638 11.89 15.8275 12 15.3361 12H12.1901ZM14.1371 9.074C14.1371 9.41133 14.1665 9.745 14.2251 10.075C14.2838 10.405 14.3938 10.7607 14.5551 11.142H15.3361C15.6661 11.142 15.9411 11.0687 16.1611 10.922C16.3885 10.768 16.5608 10.548 16.6781 10.262C16.7955 9.96867 16.8541 9.613 16.8541 9.195C16.8541 8.733 16.7258 8.35533 16.4691 8.062C16.2198 7.76867 15.9155 7.622 15.5561 7.622C15.3215 7.622 15.0905 7.666 14.8631 7.754C14.6431 7.83467 14.4451 7.941 14.2691 8.073C14.2105 8.227 14.1738 8.38467 14.1591 8.546C14.1445 8.70733 14.1371 8.88333 14.1371 9.074ZM21.2565 14.64C20.8825 14.64 20.5305 14.5923 20.2005 14.497C19.8705 14.4017 19.5625 14.2623 19.2765 14.079L19.7165 13.342C19.9512 13.4667 20.1932 13.5693 20.4425 13.65C20.6992 13.738 20.9779 13.782 21.2785 13.782C21.7772 13.782 22.1659 13.6463 22.4445 13.375C22.7305 13.111 22.8735 12.759 22.8735 12.319V12H21.7955C21.2749 12 20.8312 11.9047 20.4645 11.714C20.0979 11.5233 19.8192 11.241 19.6285 10.867C19.4379 10.493 19.3425 10.0347 19.3425 9.492C19.3425 8.91267 19.4672 8.414 19.7165 7.996C19.9659 7.57067 20.3142 7.24433 20.7615 7.017C21.2162 6.78233 21.7479 6.665 22.3565 6.665H23.7975V11.142H24.6995C24.7362 11.142 24.7545 11.1567 24.7545 11.186V11.945C24.7545 11.9817 24.7362 12 24.6995 12H23.7975V12.264C23.7975 12.7627 23.6985 13.188 23.5005 13.54C23.3025 13.8993 23.0129 14.1707 22.6315 14.354C22.2502 14.5447 21.7919 14.64 21.2565 14.64ZM22.8625 11.142V7.523H22.3895C21.7369 7.523 21.2272 7.69533 20.8605 8.04C20.5012 8.38467 20.3215 8.865 20.3215 9.481C20.3215 10.053 20.4462 10.4747 20.6955 10.746C20.9449 11.01 21.3225 11.142 21.8285 11.142H22.8625ZM24.5866 12C24.5499 12 24.5316 11.9817 24.5316 11.945V11.186C24.5316 11.1567 24.5499 11.142 24.5866 11.142H26.0386V3.64H27.0176V11.142H28.4476C28.4843 11.142 28.5026 11.1567 28.5026 11.186V11.945C28.5026 11.9817 28.4843 12 28.4476 12H24.5866ZM33.6926 12C33.3846 12 33.051 11.956 32.6916 11.868C32.3396 11.7727 31.995 11.6333 31.6576 11.45C31.335 11.6333 31.0013 11.7727 30.6566 11.868C30.3193 11.956 29.971 12 29.6116 12H28.3356C28.299 12 28.2806 11.9817 28.2806 11.945V11.186C28.2806 11.1567 28.299 11.142 28.3356 11.142H29.6006C29.8646 11.142 30.1066 11.1237 30.3266 11.087C30.5466 11.0503 30.741 10.9953 30.9096 10.922C30.7703 10.8193 30.6273 10.6947 30.4806 10.548C30.334 10.4013 30.1873 10.229 30.0406 10.031C29.7473 9.64967 29.498 9.23533 29.2926 8.788C29.0873 8.34067 28.9516 7.919 28.8856 7.523C29.157 7.27367 29.4503 7.061 29.7656 6.885C30.081 6.70167 30.4073 6.56233 30.7446 6.467C31.0893 6.36433 31.434 6.313 31.7786 6.313C32.2406 6.313 32.7063 6.38633 33.1756 6.533C33.645 6.67967 34.0556 6.874 34.4076 7.116C34.4076 7.622 34.327 8.11333 34.1656 8.59C34.0116 9.05933 33.7843 9.492 33.4836 9.888C33.1903 10.284 32.8383 10.625 32.4276 10.911C32.633 10.9843 32.8346 11.043 33.0326 11.087C33.238 11.1237 33.4433 11.142 33.6486 11.142H34.9796C35.0163 11.142 35.0346 11.1567 35.0346 11.186V11.945C35.0346 11.9817 35.0163 12 34.9796 12H33.6926ZM31.6686 10.427C32.2333 10.0457 32.6513 9.62767 32.9226 9.173C33.2013 8.711 33.359 8.17933 33.3956 7.578C33.139 7.43867 32.8786 7.336 32.6146 7.27C32.3506 7.204 32.083 7.171 31.8116 7.171C31.6063 7.171 31.3973 7.19667 31.1846 7.248C30.9793 7.292 30.7703 7.36167 30.5576 7.457C30.3523 7.55233 30.147 7.66967 29.9416 7.809C30.015 8.14633 30.1323 8.47633 30.2936 8.799C30.455 9.11433 30.653 9.41133 30.8876 9.69C31.1223 9.96867 31.3826 10.2143 31.6686 10.427ZM36.2309 11.142C36.0915 10.7827 35.9889 10.449 35.9229 10.141C35.8569 9.82567 35.8239 9.53233 35.8239 9.261C35.8239 8.93833 35.8569 8.63033 35.9229 8.337C35.9889 8.04367 36.0879 7.76867 36.2199 7.512C36.4912 7.28467 36.7992 7.105 37.1439 6.973C37.4959 6.841 37.8589 6.775 38.2329 6.775C38.4602 6.775 38.6729 6.80067 38.8709 6.852C39.0762 6.90333 39.2669 6.97667 39.4429 7.072C39.7875 7.27733 40.0515 7.567 40.2349 7.941C40.4255 8.315 40.5209 8.73667 40.5209 9.206C40.5209 9.44067 40.5025 9.668 40.4659 9.888C40.4292 10.1007 40.3705 10.306 40.2899 10.504C40.4439 10.7387 40.6162 10.9037 40.8069 10.999C41.0049 11.0943 41.2652 11.142 41.5879 11.142H41.6429C41.6795 11.142 41.6979 11.1567 41.6979 11.186V11.945C41.6979 11.9817 41.6795 12 41.6429 12H41.5879C41.1992 12 40.8655 11.9487 40.5869 11.846C40.3155 11.736 40.0515 11.549 39.7949 11.285C39.5602 11.527 39.2889 11.7067 38.9809 11.824C38.6729 11.9413 38.3502 12 38.0129 12H34.8669C34.8302 12 34.8119 11.9817 34.8119 11.945V11.186C34.8119 11.1567 34.8302 11.142 34.8669 11.142H36.2309ZM36.8139 9.074C36.8139 9.41133 36.8432 9.745 36.9019 10.075C36.9605 10.405 37.0705 10.7607 37.2319 11.142H38.0129C38.3429 11.142 38.6179 11.0687 38.8379 10.922C39.0652 10.768 39.2375 10.548 39.3549 10.262C39.4722 9.96867 39.5309 9.613 39.5309 9.195C39.5309 8.733 39.4025 8.35533 39.1459 8.062C38.8965 7.76867 38.5922 7.622 38.2329 7.622C37.9982 7.622 37.7672 7.666 37.5399 7.754C37.3199 7.83467 37.1219 7.941 36.9459 8.073C36.8872 8.227 36.8505 8.38467 36.8359 8.546C36.8212 8.70733 36.8139 8.88333 36.8139 9.074ZM41.5378 12C41.5011 12 41.4828 11.9817 41.4828 11.945V11.186C41.4828 11.1567 41.5011 11.142 41.5378 11.142H42.9898V3.64H43.9688V12H41.5378ZM46.1732 3.64H47.1522V12H46.1732V3.64ZM54.4112 12C54.1545 12 53.9602 12.066 53.8282 12.198C53.6962 12.33 53.6302 12.5317 53.6302 12.803V15.52H52.7062V12.638C52.7062 12.3373 52.7612 12.077 52.8712 11.857C52.9885 11.6297 53.1462 11.4537 53.3442 11.329C53.5495 11.2043 53.7842 11.142 54.0482 11.142H54.1252C53.9859 10.7973 53.8832 10.4673 53.8172 10.152C53.7512 9.83667 53.7182 9.53967 53.7182 9.261C53.7182 8.93833 53.7512 8.63033 53.8172 8.337C53.8832 8.04367 53.9822 7.76867 54.1142 7.512C54.3855 7.28467 54.6935 7.105 55.0382 6.973C55.3902 6.841 55.7532 6.775 56.1272 6.775C56.3545 6.775 56.5672 6.80067 56.7652 6.852C56.9705 6.90333 57.1612 6.97667 57.3372 7.072C57.6819 7.27733 57.9459 7.567 58.1292 7.941C58.3199 8.315 58.4152 8.73667 58.4152 9.206C58.4152 9.44067 58.3969 9.668 58.3602 9.888C58.3235 10.1007 58.2649 10.306 58.1842 10.504C58.3455 10.746 58.5252 10.9147 58.7232 11.01C58.9212 11.098 59.1742 11.142 59.4822 11.142H59.5372C59.5739 11.142 59.5922 11.1567 59.5922 11.186V11.945C59.5922 11.9817 59.5739 12 59.5372 12H59.4822C59.0935 12 58.7599 11.9487 58.4812 11.846C58.2099 11.736 57.9459 11.549 57.6892 11.285C57.4545 11.527 57.1832 11.7067 56.8752 11.824C56.5672 11.9413 56.2445 12 55.9072 12H54.4112ZM54.7082 9.074C54.7082 9.41133 54.7375 9.745 54.7962 10.075C54.8549 10.405 54.9649 10.7607 55.1262 11.142H55.9072C56.2372 11.142 56.5122 11.0687 56.7322 10.922C56.9595 10.768 57.1319 10.548 57.2492 10.262C57.3665 9.96867 57.4252 9.613 57.4252 9.195C57.4252 8.733 57.2969 8.35533 57.0402 8.062C56.7909 7.76867 56.4865 7.622 56.1272 7.622C55.8999 7.622 55.6762 7.66233 55.4562 7.743C55.2435 7.81633 55.0382 7.92633 54.8402 8.073C54.7742 8.227 54.7339 8.38467 54.7192 8.546C54.7119 8.70733 54.7082 8.88333 54.7082 9.074ZM64.5165 5.62C64.3258 5.62 64.1755 5.565 64.0655 5.455C63.9555 5.33767 63.9005 5.17267 63.9005 4.96C63.9005 4.74733 63.9555 4.586 64.0655 4.476C64.1755 4.35867 64.3258 4.3 64.5165 4.3C64.7145 4.3 64.8648 4.36233 64.9675 4.487C65.0775 4.60433 65.1325 4.762 65.1325 4.96C65.1325 5.158 65.0775 5.31933 64.9675 5.444C64.8648 5.56133 64.7145 5.62 64.5165 5.62ZM59.4235 12C59.3868 12 59.3685 11.9817 59.3685 11.945V11.186C59.3685 11.1567 59.3868 11.142 59.4235 11.142H60.7655V3.64H61.7005V9.03C61.9278 8.48 62.1955 8.02167 62.5035 7.655C62.8188 7.28833 63.1635 7.01333 63.5375 6.83C63.9115 6.64667 64.3148 6.555 64.7475 6.555C65.5762 6.555 66.2032 6.78233 66.6285 7.237C67.0538 7.68433 67.2665 8.38833 67.2665 9.349V11.142H68.7185C68.7552 11.142 68.7735 11.1567 68.7735 11.186V11.945C68.7735 11.9817 68.7552 12 68.7185 12H59.4235ZM66.3315 11.142V9.393C66.3315 8.71833 66.1812 8.22333 65.8805 7.908C65.5872 7.58533 65.1435 7.424 64.5495 7.424C64.1755 7.424 63.8198 7.53033 63.4825 7.743C63.1452 7.94833 62.8262 8.26 62.5255 8.678C62.2322 9.096 61.9572 9.61667 61.7005 10.24V11.142H66.3315ZM70.5111 5.62C70.3204 5.62 70.1701 5.565 70.0601 5.455C69.9501 5.33767 69.8951 5.17267 69.8951 4.96C69.8951 4.74733 69.9501 4.586 70.0601 4.476C70.1701 4.35867 70.3204 4.3 70.5111 4.3C70.7091 4.3 70.8594 4.36233 70.9621 4.487C71.0721 4.60433 71.1271 4.762 71.1271 4.96C71.1271 5.158 71.0721 5.31933 70.9621 5.444C70.8594 5.56133 70.7091 5.62 70.5111 5.62ZM68.6081 12C68.5714 12 68.5531 11.9817 68.5531 11.945V11.186C68.5531 11.1567 68.5714 11.142 68.6081 11.142H70.0601V6.665H71.0391V11.142H72.4691C72.5058 11.142 72.5241 11.1567 72.5241 11.186V11.945C72.5241 11.9817 72.5058 12 72.4691 12H68.6081ZM72.3571 12C72.3204 12 72.3021 11.9817 72.3021 11.945V11.186C72.3021 11.1567 72.3204 11.142 72.3571 11.142H73.8091V3.64H74.7881V12H72.3571ZM82.5679 4.96C82.3992 4.96 82.2525 4.90867 82.1279 4.806C82.0105 4.70333 81.9519 4.53467 81.9519 4.3C81.9519 4.06533 82.0105 3.89667 82.1279 3.794C82.2525 3.69133 82.3992 3.64 82.5679 3.64C82.7585 3.64 82.9089 3.69867 83.0189 3.816C83.1289 3.926 83.1839 4.08733 83.1839 4.3C83.1839 4.51267 83.1289 4.67767 83.0189 4.795C82.9089 4.905 82.7585 4.96 82.5679 4.96ZM84.4709 4.96C84.2802 4.96 84.1299 4.905 84.0199 4.795C83.9099 4.67767 83.8549 4.51267 83.8549 4.3C83.8549 4.08733 83.9099 3.926 84.0199 3.816C84.1299 3.69867 84.2802 3.64 84.4709 3.64C84.6689 3.64 84.8192 3.70233 84.9219 3.827C85.0319 3.94433 85.0869 4.102 85.0869 4.3C85.0869 4.498 85.0319 4.65933 84.9219 4.784C84.8192 4.90133 84.6689 4.96 84.4709 4.96ZM83.1399 12C82.5532 12 82.0509 11.901 81.6329 11.703C81.2149 11.4977 80.8959 11.208 80.6759 10.834C80.4559 10.4527 80.3459 9.99433 80.3459 9.459C80.3459 8.87967 80.4669 8.381 80.7089 7.963C80.9582 7.545 81.3065 7.226 81.7539 7.006C82.2085 6.77867 82.7439 6.665 83.3599 6.665H84.0859V5.972H85.0209V11.142H86.2749C86.3115 11.142 86.3299 11.1567 86.3299 11.186V11.945C86.3299 11.9817 86.3115 12 86.2749 12H83.1399ZM84.0859 11.142V7.523H83.3929C82.7329 7.523 82.2232 7.69167 81.8639 8.029C81.5045 8.36633 81.3249 8.83933 81.3249 9.448C81.3249 9.998 81.4789 10.4197 81.7869 10.713C82.1022 10.999 82.5459 11.142 83.1179 11.142H84.0859ZM86.1608 12C86.1242 12 86.1058 11.9817 86.1058 11.945V11.186C86.1058 11.1567 86.1242 11.142 86.1608 11.142H87.5248C87.3855 10.7827 87.2828 10.449 87.2168 10.141C87.1508 9.82567 87.1178 9.53233 87.1178 9.261C87.1178 8.93833 87.1508 8.63033 87.2168 8.337C87.2828 8.04367 87.3818 7.76867 87.5138 7.512C87.7852 7.28467 88.0932 7.105 88.4378 6.973C88.7898 6.841 89.1528 6.775 89.5268 6.775C89.9815 6.775 90.3848 6.874 90.7368 7.072C91.0815 7.27733 91.3455 7.567 91.5288 7.941C91.7195 8.315 91.8148 8.73667 91.8148 9.206C91.8148 9.49933 91.7892 9.77067 91.7378 10.02C91.6865 10.262 91.6095 10.4893 91.5068 10.702C91.2942 11.12 90.9972 11.4427 90.6158 11.67C90.2345 11.89 89.7982 12 89.3068 12H86.1608ZM88.1078 9.074C88.1078 9.41133 88.1372 9.745 88.1958 10.075C88.2545 10.405 88.3645 10.7607 88.5258 11.142H89.3068C89.6368 11.142 89.9118 11.0687 90.1318 10.922C90.3592 10.768 90.5315 10.548 90.6488 10.262C90.7662 9.96867 90.8248 9.613 90.8248 9.195C90.8248 8.733 90.6965 8.35533 90.4398 8.062C90.1905 7.76867 89.8862 7.622 89.5268 7.622C89.2922 7.622 89.0612 7.666 88.8338 7.754C88.6138 7.83467 88.4158 7.941 88.2398 8.073C88.1812 8.227 88.1445 8.38467 88.1298 8.546C88.1152 8.70733 88.1078 8.88333 88.1078 9.074ZM96.0632 11.142C96.0999 11.142 96.1182 11.1567 96.1182 11.186V11.945C96.1182 11.9817 96.0999 12 96.0632 12H93.6322V3.64H94.6112V11.142H96.0632ZM101.315 12C101.007 12 100.673 11.956 100.314 11.868C99.9617 11.7727 99.617 11.6333 99.2797 11.45C98.957 11.6333 98.6234 11.7727 98.2787 11.868C97.9414 11.956 97.593 12 97.2337 12H95.9577C95.921 12 95.9027 11.9817 95.9027 11.945V11.186C95.9027 11.1567 95.921 11.142 95.9577 11.142H97.2227C97.4867 11.142 97.7287 11.1237 97.9487 11.087C98.1687 11.0503 98.363 10.9953 98.5317 10.922C98.3924 10.8193 98.2494 10.6947 98.1027 10.548C97.956 10.4013 97.8094 10.229 97.6627 10.031C97.3694 9.64967 97.12 9.23533 96.9147 8.788C96.7094 8.34067 96.5737 7.919 96.5077 7.523C96.779 7.27367 97.0724 7.061 97.3877 6.885C97.703 6.70167 98.0294 6.56233 98.3667 6.467C98.7114 6.36433 99.056 6.313 99.4007 6.313C99.8627 6.313 100.328 6.38633 100.798 6.533C101.267 6.67967 101.678 6.874 102.03 7.116C102.03 7.622 101.949 8.11333 101.788 8.59C101.634 9.05933 101.406 9.492 101.106 9.888C100.812 10.284 100.46 10.625 100.05 10.911C100.255 10.9843 100.457 11.043 100.655 11.087C100.86 11.1237 101.065 11.142 101.271 11.142H102.602C102.638 11.142 102.657 11.1567 102.657 11.186V11.945C102.657 11.9817 102.638 12 102.602 12H101.315ZM99.2907 10.427C99.8554 10.0457 100.273 9.62767 100.545 9.173C100.823 8.711 100.981 8.17933 101.018 7.578C100.761 7.43867 100.501 7.336 100.237 7.27C99.9727 7.204 99.705 7.171 99.4337 7.171C99.2284 7.171 99.0194 7.19667 98.8067 7.248C98.6014 7.292 98.3924 7.36167 98.1797 7.457C97.9744 7.55233 97.769 7.66967 97.5637 7.809C97.637 8.14633 97.7544 8.47633 97.9157 8.799C98.077 9.11433 98.275 9.41133 98.5097 9.69C98.7444 9.96867 99.0047 10.2143 99.2907 10.427ZM102.489 12C102.452 12 102.434 11.9817 102.434 11.945V11.186C102.434 11.1567 102.452 11.142 102.489 11.142H103.941V3.64H104.92V12H102.489ZM107.124 3.64H108.103V12H107.124V3.64ZM115.131 5.62C114.963 5.62 114.816 5.56867 114.691 5.466C114.574 5.36333 114.515 5.19467 114.515 4.96C114.515 4.72533 114.574 4.55667 114.691 4.454C114.816 4.35133 114.963 4.3 115.131 4.3C115.322 4.3 115.472 4.35867 115.582 4.476C115.692 4.586 115.747 4.74733 115.747 4.96C115.747 5.17267 115.692 5.33767 115.582 5.455C115.472 5.565 115.322 5.62 115.131 5.62ZM117.034 5.62C116.844 5.62 116.693 5.565 116.583 5.455C116.473 5.33767 116.418 5.17267 116.418 4.96C116.418 4.74733 116.473 4.586 116.583 4.476C116.693 4.35867 116.844 4.3 117.034 4.3C117.232 4.3 117.383 4.36233 117.485 4.487C117.595 4.60433 117.65 4.762 117.65 4.96C117.65 5.158 117.595 5.31933 117.485 5.444C117.383 5.56133 117.232 5.62 117.034 5.62ZM116.209 12.11C115.403 12.11 114.776 11.89 114.328 11.45C113.881 11.0027 113.657 10.372 113.657 9.558C113.657 9.02267 113.771 8.52033 113.998 8.051C114.218 7.589 114.526 7.226 114.922 6.962C115.318 6.69067 115.758 6.555 116.242 6.555C116.47 6.555 116.69 6.59167 116.902 6.665C117.115 6.731 117.32 6.83 117.518 6.962C117.782 7.14533 118.01 7.37633 118.2 7.655C118.391 7.92633 118.538 8.227 118.64 8.557C118.743 8.87967 118.794 9.21333 118.794 9.558C118.794 10.3867 118.578 11.021 118.145 11.461C117.713 11.8937 117.067 12.11 116.209 12.11ZM116.231 11.263C116.752 11.263 117.144 11.1237 117.408 10.845C117.672 10.559 117.804 10.1337 117.804 9.569C117.804 9.12167 117.742 8.73667 117.617 8.414C117.493 8.09133 117.309 7.842 117.067 7.666C116.833 7.49 116.55 7.402 116.22 7.402C115.92 7.402 115.652 7.49367 115.417 7.677C115.183 7.86033 114.996 8.11333 114.856 8.436C114.717 8.75867 114.647 9.13633 114.647 9.569C114.647 10.1337 114.779 10.559 115.043 10.845C115.307 11.1237 115.703 11.263 116.231 11.263ZM120.188 14.64C120.012 14.64 119.829 14.6143 119.638 14.563C119.455 14.5117 119.264 14.4347 119.066 14.332L119.352 13.595C119.528 13.6757 119.675 13.727 119.792 13.749C119.909 13.771 120.034 13.782 120.166 13.782C120.496 13.782 120.753 13.6463 120.936 13.375C121.127 13.111 121.222 12.759 121.222 12.319V6.665H122.146V12.264C122.146 12.7553 122.069 13.177 121.915 13.529C121.768 13.8883 121.548 14.1633 121.255 14.354C120.962 14.5447 120.606 14.64 120.188 14.64ZM124.183 3.64H125.162V12H124.183V3.64ZM126.758 11.142H130.421C130.384 10.8633 130.333 10.5993 130.267 10.35C130.208 10.1007 130.138 9.86233 130.058 9.635C129.852 9.04833 129.57 8.524 129.211 8.062C128.859 7.6 128.411 7.18933 127.869 6.83L128.221 5.994C128.785 6.28733 129.277 6.676 129.695 7.16C130.12 7.644 130.472 8.21967 130.751 8.887C131.037 9.55433 131.242 10.3133 131.367 11.164V12H126.758V11.142ZM135.39 11.142C135.427 11.142 135.445 11.1567 135.445 11.186V11.945C135.445 11.9817 135.427 12 135.39 12H132.959V3.64H133.938V11.142H135.39ZM132.42 14.398L132.937 14.321C132.835 14.255 132.743 14.1633 132.662 14.046C132.589 13.9287 132.552 13.7893 132.552 13.628C132.552 13.32 132.651 13.078 132.849 12.902C133.047 12.726 133.322 12.638 133.674 12.638C133.821 12.638 133.953 12.649 134.07 12.671C134.195 12.7003 134.305 12.7443 134.4 12.803L134.235 13.298C134.162 13.254 134.078 13.221 133.982 13.199C133.894 13.177 133.795 13.166 133.685 13.166C133.524 13.166 133.388 13.21 133.278 13.298C133.168 13.3933 133.113 13.5363 133.113 13.727C133.113 13.8443 133.139 13.9433 133.19 14.024C133.249 14.112 133.333 14.1853 133.443 14.244C133.495 14.2367 133.597 14.2183 133.751 14.189C133.913 14.167 134.07 14.145 134.224 14.123C134.386 14.1083 134.492 14.101 134.543 14.101V14.64C134.463 14.64 134.327 14.6473 134.136 14.662C133.946 14.684 133.733 14.7097 133.498 14.739C133.271 14.7757 133.058 14.805 132.86 14.827C132.662 14.8563 132.516 14.882 132.42 14.904V14.398ZM135.285 12C135.248 12 135.23 11.9817 135.23 11.945V11.186C135.23 11.1567 135.248 11.142 135.285 11.142H136.737V3.64H137.716V12H135.285ZM139.92 3.64H140.899V12H139.92V3.64Z" fill="#5D6E82"/>
<path d="M263.189 16.84C263.02 16.84 262.874 16.7887 262.749 16.686C262.632 16.5833 262.573 16.4147 262.573 16.18C262.573 15.9453 262.632 15.7767 262.749 15.674C262.874 15.5713 263.02 15.52 263.189 15.52C263.38 15.52 263.53 15.575 263.64 15.685C263.75 15.8023 263.805 15.9673 263.805 16.18C263.805 16.3927 263.75 16.554 263.64 16.664C263.53 16.7813 263.38 16.84 263.189 16.84ZM265.092 16.84C264.901 16.84 264.751 16.7813 264.641 16.664C264.531 16.554 264.476 16.3927 264.476 16.18C264.476 15.9673 264.531 15.8023 264.641 15.685C264.751 15.575 264.901 15.52 265.092 15.52C265.29 15.52 265.44 15.5787 265.543 15.696C265.653 15.8207 265.708 15.982 265.708 16.18C265.708 16.378 265.653 16.5357 265.543 16.653C265.44 16.7777 265.29 16.84 265.092 16.84ZM262.848 14.64C262.386 14.64 261.99 14.53 261.66 14.31C261.33 14.0973 261.077 13.793 260.901 13.397C260.725 13.001 260.637 12.5317 260.637 11.989C260.637 11.6077 260.666 11.263 260.725 10.955C260.791 10.647 260.89 10.3317 261.022 10.009H261.935C261.818 10.317 261.737 10.6177 261.693 10.911C261.649 11.197 261.627 11.5343 261.627 11.923C261.627 12.319 261.682 12.6527 261.792 12.924C261.902 13.2027 262.063 13.4153 262.276 13.562C262.489 13.7087 262.749 13.782 263.057 13.782H265.213C265.587 13.782 265.91 13.7343 266.181 13.639C266.46 13.551 266.672 13.4227 266.819 13.254C266.966 13.0853 267.039 12.8873 267.039 12.66C267.039 12.4913 266.973 12.33 266.841 12.176C266.709 12.022 266.54 11.879 266.335 11.747C266.137 11.6077 265.932 11.4757 265.719 11.351C265.499 11.219 265.312 11.1017 265.158 10.999C265.004 10.8963 264.883 10.8047 264.795 10.724C264.678 10.6287 264.579 10.5297 264.498 10.427C264.417 10.317 264.355 10.2033 264.311 10.086C264.274 9.96867 264.256 9.84767 264.256 9.723C264.256 9.503 264.296 9.27933 264.377 9.052C264.458 8.81733 264.579 8.579 264.74 8.337C264.953 8.01433 265.206 7.72833 265.499 7.479C265.792 7.22233 266.097 7.02433 266.412 6.885C266.735 6.73833 267.046 6.665 267.347 6.665C267.516 6.665 267.692 6.69067 267.875 6.742C268.058 6.786 268.227 6.841 268.381 6.907C268.542 6.973 268.671 7.039 268.766 7.105L268.37 7.842C268.311 7.81267 268.223 7.78333 268.106 7.754C267.989 7.72467 267.871 7.70267 267.754 7.688C267.637 7.666 267.534 7.655 267.446 7.655C267.292 7.655 267.134 7.68433 266.973 7.743C266.819 7.80167 266.669 7.87133 266.522 7.952C266.302 8.09133 266.104 8.25267 265.928 8.436C265.752 8.612 265.609 8.79533 265.499 8.986C265.396 9.17667 265.345 9.36 265.345 9.536C265.345 9.61667 265.374 9.70467 265.433 9.8C265.499 9.888 265.591 9.98333 265.708 10.086C265.833 10.1887 265.987 10.295 266.17 10.405C266.441 10.5663 266.672 10.7167 266.863 10.856C267.054 10.9953 267.208 11.1163 267.325 11.219C267.552 11.4317 267.728 11.6627 267.853 11.912C267.978 12.1613 268.04 12.418 268.04 12.682C268.04 13.298 267.794 13.7783 267.303 14.123C266.812 14.4677 266.115 14.64 265.213 14.64H262.848ZM271.789 12V12.264C271.789 12.7553 271.712 13.177 271.558 13.529C271.412 13.8883 271.192 14.1633 270.898 14.354C270.605 14.5447 270.249 14.64 269.831 14.64C269.655 14.64 269.472 14.6143 269.281 14.563C269.098 14.5117 268.907 14.4347 268.709 14.332L268.995 13.595C269.171 13.6757 269.318 13.727 269.435 13.749C269.553 13.771 269.677 13.782 269.809 13.782C270.139 13.782 270.396 13.6463 270.579 13.375C270.77 13.111 270.865 12.759 270.865 12.319V6.665H271.789V11.142H273.153C273.19 11.142 273.208 11.1567 273.208 11.186V11.945C273.208 11.9817 273.19 12 273.153 12H271.789ZM274.401 14.2C274.232 14.2 274.085 14.1487 273.961 14.046C273.843 13.9433 273.785 13.7747 273.785 13.54C273.785 13.3053 273.843 13.1367 273.961 13.034C274.085 12.9313 274.232 12.88 274.401 12.88C274.591 12.88 274.742 12.935 274.852 13.045C274.962 13.1623 275.017 13.3273 275.017 13.54C275.017 13.7527 274.962 13.914 274.852 14.024C274.742 14.1413 274.591 14.2 274.401 14.2ZM276.304 14.2C276.113 14.2 275.963 14.1413 275.853 14.024C275.743 13.914 275.688 13.7527 275.688 13.54C275.688 13.3273 275.743 13.1623 275.853 13.045C275.963 12.935 276.113 12.88 276.304 12.88C276.502 12.88 276.652 12.9387 276.755 13.056C276.865 13.1807 276.92 13.342 276.92 13.54C276.92 13.738 276.865 13.8957 276.755 14.013C276.652 14.1377 276.502 14.2 276.304 14.2ZM273.048 12C273.011 12 272.993 11.9817 272.993 11.945V11.186C272.993 11.1567 273.011 11.142 273.048 11.142H274.83V6.665H275.809V11.142H277.459C277.495 11.142 277.514 11.1567 277.514 11.186V11.945C277.514 11.9817 277.495 12 277.459 12H273.048ZM277.344 12C277.308 12 277.289 11.9817 277.289 11.945V11.186C277.289 11.1567 277.308 11.142 277.344 11.142H278.686V3.64H279.621V9.03C279.849 8.48 280.116 8.02167 280.424 7.655C280.74 7.28833 281.084 7.01333 281.458 6.83C281.832 6.64667 282.236 6.555 282.668 6.555C283.497 6.555 284.124 6.78233 284.549 7.237C284.975 7.68433 285.187 8.38833 285.187 9.349V11.142H286.639C286.676 11.142 286.694 11.1567 286.694 11.186V11.945C286.694 11.9817 286.676 12 286.639 12H277.344ZM284.252 11.142V9.393C284.252 8.71833 284.102 8.22333 283.801 7.908C283.508 7.58533 283.064 7.424 282.47 7.424C282.096 7.424 281.741 7.53033 281.403 7.743C281.066 7.94833 280.747 8.26 280.446 8.678C280.153 9.096 279.878 9.61667 279.621 10.24V11.142H284.252ZM287.893 11.142C287.754 10.7827 287.651 10.449 287.585 10.141C287.519 9.82567 287.486 9.53233 287.486 9.261C287.486 8.93833 287.519 8.63033 287.585 8.337C287.651 8.04367 287.75 7.76867 287.882 7.512C288.153 7.28467 288.461 7.105 288.806 6.973C289.158 6.841 289.521 6.775 289.895 6.775C290.122 6.775 290.335 6.80067 290.533 6.852C290.738 6.90333 290.929 6.97667 291.105 7.072C291.45 7.27733 291.714 7.567 291.897 7.941C292.088 8.315 292.183 8.73667 292.183 9.206C292.183 9.44067 292.165 9.668 292.128 9.888C292.091 10.1007 292.033 10.306 291.952 10.504C292.106 10.7387 292.278 10.9037 292.469 10.999C292.667 11.0943 292.927 11.142 293.25 11.142H293.305C293.342 11.142 293.36 11.1567 293.36 11.186V11.945C293.36 11.9817 293.342 12 293.305 12H293.25C292.861 12 292.528 11.9487 292.249 11.846C291.978 11.736 291.714 11.549 291.457 11.285C291.222 11.527 290.951 11.7067 290.643 11.824C290.335 11.9413 290.012 12 289.675 12H286.529C286.492 12 286.474 11.9817 286.474 11.945V11.186C286.474 11.1567 286.492 11.142 286.529 11.142H287.893ZM288.476 9.074C288.476 9.41133 288.505 9.745 288.564 10.075C288.623 10.405 288.733 10.7607 288.894 11.142H289.675C290.005 11.142 290.28 11.0687 290.5 10.922C290.727 10.768 290.9 10.548 291.017 10.262C291.134 9.96867 291.193 9.613 291.193 9.195C291.193 8.733 291.065 8.35533 290.808 8.062C290.559 7.76867 290.254 7.622 289.895 7.622C289.66 7.622 289.429 7.666 289.202 7.754C288.982 7.83467 288.784 7.941 288.608 8.073C288.549 8.227 288.513 8.38467 288.498 8.546C288.483 8.70733 288.476 8.88333 288.476 9.074ZM293.2 12C293.163 12 293.145 11.9817 293.145 11.945V11.186C293.145 11.1567 293.163 11.142 293.2 11.142H294.652V3.64H295.631V12H293.2ZM297.835 3.64H298.814V12H297.835V3.64ZM304.148 11.142H307.811C307.76 10.7973 307.694 10.471 307.613 10.163C307.533 9.855 307.434 9.56533 307.316 9.294C307.104 8.788 306.829 8.33333 306.491 7.93C306.154 7.52667 305.743 7.16 305.259 6.83L305.611 5.994C306.176 6.29467 306.671 6.687 307.096 7.171C307.522 7.655 307.87 8.23067 308.141 8.898C308.42 9.558 308.622 10.306 308.746 11.142H309.967C310.004 11.142 310.022 11.1567 310.022 11.186V11.945C310.022 11.9817 310.004 12 309.967 12H304.148V11.142ZM315.218 12C314.91 12 314.576 11.956 314.217 11.868C313.865 11.7727 313.52 11.6333 313.183 11.45C312.86 11.6333 312.527 11.7727 312.182 11.868C311.845 11.956 311.496 12 311.137 12H309.861C309.824 12 309.806 11.9817 309.806 11.945V11.186C309.806 11.1567 309.824 11.142 309.861 11.142H311.126C311.39 11.142 311.632 11.1237 311.852 11.087C312.072 11.0503 312.266 10.9953 312.435 10.922C312.296 10.8193 312.153 10.6947 312.006 10.548C311.859 10.4013 311.713 10.229 311.566 10.031C311.273 9.64967 311.023 9.23533 310.818 8.788C310.613 8.34067 310.477 7.919 310.411 7.523C310.682 7.27367 310.976 7.061 311.291 6.885C311.606 6.70167 311.933 6.56233 312.27 6.467C312.615 6.36433 312.959 6.313 313.304 6.313C313.766 6.313 314.232 6.38633 314.701 6.533C315.17 6.67967 315.581 6.874 315.933 7.116C315.933 7.622 315.852 8.11333 315.691 8.59C315.537 9.05933 315.31 9.492 315.009 9.888C314.716 10.284 314.364 10.625 313.953 10.911C314.158 10.9843 314.36 11.043 314.558 11.087C314.763 11.1237 314.969 11.142 315.174 11.142H316.505C316.542 11.142 316.56 11.1567 316.56 11.186V11.945C316.56 11.9817 316.542 12 316.505 12H315.218ZM313.194 10.427C313.759 10.0457 314.177 9.62767 314.448 9.173C314.727 8.711 314.884 8.17933 314.921 7.578C314.664 7.43867 314.404 7.336 314.14 7.27C313.876 7.204 313.608 7.171 313.337 7.171C313.132 7.171 312.923 7.19667 312.71 7.248C312.505 7.292 312.296 7.36167 312.083 7.457C311.878 7.55233 311.672 7.66967 311.467 7.809C311.54 8.14633 311.658 8.47633 311.819 8.799C311.98 9.11433 312.178 9.41133 312.413 9.69C312.648 9.96867 312.908 10.2143 313.194 10.427ZM323.564 12C323.234 12 322.93 11.945 322.651 11.835C322.373 11.725 322.087 11.5233 321.793 11.23C321.632 11.4573 321.416 11.6443 321.144 11.791C320.88 11.9303 320.561 12 320.187 12H316.392C316.356 12 316.337 11.9817 316.337 11.945V11.186C316.337 11.1567 316.356 11.142 316.392 11.142H317.965V7.523H318.9V11.142H320.088C320.44 11.142 320.715 11.0247 320.913 10.79C321.111 10.5553 321.21 10.2473 321.21 9.866V7.523H322.145V9.921C322.145 9.97967 322.142 10.042 322.134 10.108C322.134 10.1667 322.134 10.2253 322.134 10.284C322.318 10.5993 322.516 10.823 322.728 10.955C322.948 11.0797 323.227 11.142 323.564 11.142H324.235V6.665H325.17V12H323.564ZM332.483 12V12.264C332.483 12.7553 332.406 13.177 332.252 13.529C332.105 13.8883 331.885 14.1633 331.592 14.354C331.298 14.5447 330.943 14.64 330.525 14.64C330.349 14.64 330.165 14.6143 329.975 14.563C329.791 14.5117 329.601 14.4347 329.403 14.332L329.689 13.595C329.865 13.6757 330.011 13.727 330.129 13.749C330.246 13.771 330.371 13.782 330.503 13.782C330.833 13.782 331.089 13.6463 331.273 13.375C331.463 13.111 331.559 12.759 331.559 12.319V6.665H332.483V11.142H333.847C333.883 11.142 333.902 11.1567 333.902 11.186V11.945C333.902 11.9817 333.883 12 333.847 12H332.483ZM336.535 5.62C336.366 5.62 336.22 5.56867 336.095 5.466C335.978 5.36333 335.919 5.19467 335.919 4.96C335.919 4.72533 335.978 4.55667 336.095 4.454C336.22 4.35133 336.366 4.3 336.535 4.3C336.726 4.3 336.876 4.35867 336.986 4.476C337.096 4.586 337.151 4.74733 337.151 4.96C337.151 5.17267 337.096 5.33767 336.986 5.455C336.876 5.565 336.726 5.62 336.535 5.62ZM338.438 5.62C338.247 5.62 338.097 5.565 337.987 5.455C337.877 5.33767 337.822 5.17267 337.822 4.96C337.822 4.74733 337.877 4.586 337.987 4.476C338.097 4.35867 338.247 4.3 338.438 4.3C338.636 4.3 338.786 4.36233 338.889 4.487C338.999 4.60433 339.054 4.762 339.054 4.96C339.054 5.158 338.999 5.31933 338.889 5.444C338.786 5.56133 338.636 5.62 338.438 5.62ZM340.462 11.142C340.491 11.142 340.506 11.1493 340.506 11.164C340.513 11.1713 340.517 11.1823 340.517 11.197V11.956C340.517 11.9853 340.499 12 340.462 12H333.741C333.704 12 333.686 11.9817 333.686 11.945V11.186C333.686 11.1567 333.704 11.142 333.741 11.142H335.413C335.288 11.0027 335.182 10.8413 335.094 10.658C335.013 10.4747 334.951 10.284 334.907 10.086C334.863 9.88067 334.841 9.679 334.841 9.481C334.841 8.90167 334.962 8.403 335.204 7.985C335.453 7.55967 335.802 7.23333 336.249 7.006C336.704 6.77867 337.239 6.665 337.855 6.665H339.296V11.142H340.462ZM338.361 11.142V7.523H337.888C337.455 7.523 337.085 7.6 336.777 7.754C336.469 7.908 336.231 8.13167 336.062 8.425C335.901 8.71833 335.82 9.07033 335.82 9.481C335.82 9.84767 335.875 10.1557 335.985 10.405C336.095 10.647 336.26 10.8303 336.48 10.955C336.707 11.0797 336.99 11.142 337.327 11.142H338.361ZM340.347 12C340.311 12 340.292 11.9817 340.292 11.945V11.186C340.292 11.1567 340.311 11.142 340.347 11.142H341.689V6.995H342.624V9.03C342.852 8.48 343.119 8.02167 343.427 7.655C343.743 7.28833 344.087 7.01333 344.461 6.83C344.835 6.64667 345.239 6.555 345.671 6.555C346.5 6.555 347.127 6.78233 347.552 7.237C347.978 7.68433 348.19 8.38833 348.19 9.349V12H340.347ZM347.255 11.142V9.393C347.255 8.71833 347.105 8.22333 346.804 7.908C346.511 7.58533 346.067 7.424 345.473 7.424C345.099 7.424 344.744 7.53033 344.406 7.743C344.069 7.94833 343.75 8.26 343.449 8.678C343.156 9.096 342.881 9.61667 342.624 10.24V11.142H347.255ZM353.251 11.142H356.914C356.863 10.7973 356.797 10.471 356.716 10.163C356.635 9.855 356.536 9.56533 356.419 9.294C356.206 8.788 355.931 8.33333 355.594 7.93C355.257 7.52667 354.846 7.16 354.362 6.83L354.714 5.994C355.279 6.29467 355.774 6.687 356.199 7.171C356.624 7.655 356.973 8.23067 357.244 8.898C357.523 9.558 357.724 10.306 357.849 11.142H359.07C359.107 11.142 359.125 11.1567 359.125 11.186V11.945C359.125 11.9817 359.107 12 359.07 12H353.251V11.142ZM360.317 14.2C360.148 14.2 360.001 14.1487 359.877 14.046C359.759 13.9433 359.701 13.7747 359.701 13.54C359.701 13.3053 359.759 13.1367 359.877 13.034C360.001 12.9313 360.148 12.88 360.317 12.88C360.507 12.88 360.658 12.935 360.768 13.045C360.878 13.1623 360.933 13.3273 360.933 13.54C360.933 13.7527 360.878 13.914 360.768 14.024C360.658 14.1413 360.507 14.2 360.317 14.2ZM362.22 14.2C362.029 14.2 361.879 14.1413 361.769 14.024C361.659 13.914 361.604 13.7527 361.604 13.54C361.604 13.3273 361.659 13.1623 361.769 13.045C361.879 12.935 362.029 12.88 362.22 12.88C362.418 12.88 362.568 12.9387 362.671 13.056C362.781 13.1807 362.836 13.342 362.836 13.54C362.836 13.738 362.781 13.8957 362.671 14.013C362.568 14.1377 362.418 14.2 362.22 14.2ZM358.964 12C358.927 12 358.909 11.9817 358.909 11.945V11.186C358.909 11.1567 358.927 11.142 358.964 11.142H360.746V6.665H361.725V11.142H363.375C363.411 11.142 363.43 11.1567 363.43 11.186V11.945C363.43 11.9817 363.411 12 363.375 12H358.964ZM368.617 12C368.309 12 367.976 11.956 367.616 11.868C367.264 11.7727 366.92 11.6333 366.582 11.45C366.26 11.6333 365.926 11.7727 365.581 11.868C365.244 11.956 364.896 12 364.536 12H363.26C363.224 12 363.205 11.9817 363.205 11.945V11.186C363.205 11.1567 363.224 11.142 363.26 11.142H364.525C364.789 11.142 365.031 11.1237 365.251 11.087C365.471 11.0503 365.666 10.9953 365.834 10.922C365.695 10.8193 365.552 10.6947 365.405 10.548C365.259 10.4013 365.112 10.229 364.965 10.031C364.672 9.64967 364.423 9.23533 364.217 8.788C364.012 8.34067 363.876 7.919 363.81 7.523C364.082 7.27367 364.375 7.061 364.69 6.885C365.006 6.70167 365.332 6.56233 365.669 6.467C366.014 6.36433 366.359 6.313 366.703 6.313C367.165 6.313 367.631 6.38633 368.1 6.533C368.57 6.67967 368.98 6.874 369.332 7.116C369.332 7.622 369.252 8.11333 369.09 8.59C368.936 9.05933 368.709 9.492 368.408 9.888C368.115 10.284 367.763 10.625 367.352 10.911C367.558 10.9843 367.759 11.043 367.957 11.087C368.163 11.1237 368.368 11.142 368.573 11.142H369.904C369.941 11.142 369.959 11.1567 369.959 11.186V11.945C369.959 11.9817 369.941 12 369.904 12H368.617ZM366.593 10.427C367.158 10.0457 367.576 9.62767 367.847 9.173C368.126 8.711 368.284 8.17933 368.32 7.578C368.064 7.43867 367.803 7.336 367.539 7.27C367.275 7.204 367.008 7.171 366.736 7.171C366.531 7.171 366.322 7.19667 366.109 7.248C365.904 7.292 365.695 7.36167 365.482 7.457C365.277 7.55233 365.072 7.66967 364.866 7.809C364.94 8.14633 365.057 8.47633 365.218 8.799C365.38 9.11433 365.578 9.41133 365.812 9.69C366.047 9.96867 366.307 10.2143 366.593 10.427ZM376.964 12C376.634 12 376.329 11.945 376.051 11.835C375.772 11.725 375.486 11.5233 375.193 11.23C375.031 11.4573 374.815 11.6443 374.544 11.791C374.28 11.9303 373.961 12 373.587 12H369.792C369.755 12 369.737 11.9817 369.737 11.945V11.186C369.737 11.1567 369.755 11.142 369.792 11.142H371.365V7.523H372.3V11.142H373.488C373.84 11.142 374.115 11.0247 374.313 10.79C374.511 10.5553 374.61 10.2473 374.61 9.866V7.523H375.545V9.921C375.545 9.97967 375.541 10.042 375.534 10.108C375.534 10.1667 375.534 10.2253 375.534 10.284C375.717 10.5993 375.915 10.823 376.128 10.955C376.348 11.0797 376.626 11.142 376.964 11.142H377.635V6.665H378.57V12H376.964ZM383.682 9.481V8.623H386.344V9.481H383.682ZM394.43 12H393.484V6.511C393.484 6.29833 393.484 6.11867 393.484 5.972C393.492 5.82533 393.499 5.68967 393.506 5.565C393.514 5.433 393.521 5.29733 393.528 5.158C393.411 5.27533 393.305 5.37433 393.209 5.455C393.114 5.53567 392.993 5.63833 392.846 5.763L392.01 6.445L391.504 5.796L393.627 4.146H394.43V12ZM402.573 8.062C402.573 8.90533 402.485 9.63133 402.309 10.24C402.133 10.8413 401.855 11.3033 401.473 11.626C401.092 11.9487 400.586 12.11 399.955 12.11C399.068 12.11 398.412 11.7543 397.986 11.043C397.568 10.3243 397.359 9.33067 397.359 8.062C397.359 7.21133 397.444 6.48533 397.612 5.884C397.788 5.28267 398.067 4.82433 398.448 4.509C398.83 4.18633 399.332 4.025 399.955 4.025C400.542 4.025 401.03 4.18633 401.418 4.509C401.807 4.82433 402.097 5.28267 402.287 5.884C402.478 6.48533 402.573 7.21133 402.573 8.062ZM398.327 8.062C398.327 9.14 398.448 9.94667 398.69 10.482C398.94 11.0173 399.361 11.285 399.955 11.285C400.542 11.285 400.96 11.021 401.209 10.493C401.466 9.95767 401.594 9.14733 401.594 8.062C401.594 7.34333 401.539 6.74933 401.429 6.28C401.319 5.80333 401.143 5.44767 400.901 5.213C400.667 4.971 400.351 4.85 399.955 4.85C399.559 4.85 399.24 4.971 398.998 5.213C398.764 5.44767 398.591 5.80333 398.481 6.28C398.379 6.74933 398.327 7.34333 398.327 8.062ZM409.187 10.218H408.043V12H407.108V10.218H403.346V9.393L407.042 4.102H408.043V9.349H409.187V10.218ZM407.108 9.349V6.874C407.108 6.61733 407.112 6.39 407.119 6.192C407.127 5.994 407.134 5.81067 407.141 5.642C407.149 5.466 407.156 5.29733 407.163 5.136H407.119C407.061 5.27533 406.987 5.42567 406.899 5.587C406.811 5.74833 406.727 5.884 406.646 5.994L404.292 9.349H407.108ZM415.13 7.501C415.13 7.94833 415.097 8.39567 415.031 8.843C414.972 9.283 414.866 9.701 414.712 10.097C414.558 10.4857 414.345 10.834 414.074 11.142C413.803 11.4427 413.458 11.681 413.04 11.857C412.622 12.0257 412.116 12.11 411.522 12.11C411.375 12.11 411.203 12.099 411.005 12.077C410.814 12.0623 410.657 12.0367 410.532 12V11.175C410.664 11.219 410.818 11.2557 410.994 11.285C411.17 11.307 411.339 11.318 411.5 11.318C412.013 11.318 412.435 11.2337 412.765 11.065C413.102 10.8963 413.37 10.669 413.568 10.383C413.766 10.0897 413.909 9.75233 413.997 9.371C414.085 8.98233 414.136 8.57533 414.151 8.15H414.085C413.975 8.31867 413.836 8.47267 413.667 8.612C413.498 8.75133 413.293 8.86133 413.051 8.942C412.816 9.02267 412.538 9.063 412.215 9.063C411.54 9.063 410.994 8.85767 410.576 8.447C410.165 8.029 409.96 7.44233 409.96 6.687C409.96 6.137 410.063 5.664 410.268 5.268C410.481 4.872 410.774 4.56767 411.148 4.355C411.522 4.14233 411.962 4.036 412.468 4.036C412.842 4.036 413.19 4.10933 413.513 4.256C413.836 4.39533 414.118 4.608 414.36 4.894C414.602 5.18 414.789 5.53933 414.921 5.972C415.06 6.40467 415.13 6.91433 415.13 7.501ZM412.468 4.85C412.013 4.85 411.639 5.00033 411.346 5.301C411.06 5.60167 410.917 6.06 410.917 6.676C410.917 7.17467 411.038 7.57067 411.28 7.864C411.529 8.15 411.911 8.293 412.424 8.293C412.776 8.293 413.08 8.22333 413.337 8.084C413.594 7.94467 413.792 7.765 413.931 7.545C414.078 7.325 414.151 7.09767 414.151 6.863C414.151 6.62833 414.114 6.39367 414.041 6.159C413.975 5.917 413.872 5.697 413.733 5.499C413.594 5.301 413.418 5.14333 413.205 5.026C412.992 4.90867 412.747 4.85 412.468 4.85ZM418.84 4.036C419.302 4.036 419.709 4.10933 420.061 4.256C420.413 4.39533 420.688 4.60433 420.886 4.883C421.091 5.16167 421.194 5.50633 421.194 5.917C421.194 6.23233 421.124 6.50733 420.985 6.742C420.853 6.97667 420.673 7.18567 420.446 7.369C420.219 7.545 419.969 7.70267 419.698 7.842C420.021 7.996 420.314 8.172 420.578 8.37C420.842 8.56067 421.051 8.78433 421.205 9.041C421.366 9.29767 421.447 9.60567 421.447 9.965C421.447 10.405 421.341 10.7863 421.128 11.109C420.915 11.4243 420.615 11.67 420.226 11.846C419.845 12.022 419.394 12.11 418.873 12.11C418.03 12.11 417.381 11.9267 416.926 11.56C416.471 11.186 416.244 10.6653 416.244 9.998C416.244 9.63867 416.317 9.327 416.464 9.063C416.618 8.799 416.82 8.57167 417.069 8.381C417.318 8.19033 417.586 8.029 417.872 7.897C417.615 7.75033 417.381 7.58533 417.168 7.402C416.963 7.21133 416.798 6.995 416.673 6.753C416.556 6.511 416.497 6.22867 416.497 5.906C416.497 5.50267 416.6 5.16533 416.805 4.894C417.01 4.61533 417.289 4.40267 417.641 4.256C417.993 4.10933 418.393 4.036 418.84 4.036ZM417.19 10.009C417.19 10.3903 417.326 10.7093 417.597 10.966C417.868 11.2153 418.286 11.34 418.851 11.34C419.386 11.34 419.793 11.2153 420.072 10.966C420.358 10.7093 420.501 10.3793 420.501 9.976C420.501 9.71933 420.431 9.49567 420.292 9.305C420.16 9.107 419.969 8.931 419.72 8.777C419.478 8.623 419.188 8.48367 418.851 8.359L418.675 8.293C418.352 8.43233 418.081 8.58267 417.861 8.744C417.641 8.90533 417.472 9.08867 417.355 9.294C417.245 9.49933 417.19 9.73767 417.19 10.009ZM418.829 4.817C418.426 4.817 418.092 4.916 417.828 5.114C417.571 5.30467 417.443 5.58333 417.443 5.95C417.443 6.22133 417.505 6.44867 417.63 6.632C417.762 6.81533 417.938 6.973 418.158 7.105C418.378 7.22967 418.62 7.35067 418.884 7.468C419.141 7.358 419.368 7.237 419.566 7.105C419.771 6.973 419.933 6.81533 420.05 6.632C420.175 6.44133 420.237 6.214 420.237 5.95C420.237 5.58333 420.109 5.30467 419.852 5.114C419.595 4.916 419.254 4.817 418.829 4.817Z" fill="#5D6E82"/>
<path d="M1828.04 12C1828.03 12.8727 1827.8 13.529 1827.36 13.969C1826.92 14.4163 1826.24 14.64 1825.3 14.64H1824.51C1824.26 14.64 1824.03 14.6033 1823.82 14.53C1823.61 14.464 1823.41 14.365 1823.24 14.233C1822.94 13.9983 1822.71 13.6757 1822.54 13.265C1822.38 12.8617 1822.3 12.3813 1822.3 11.824C1822.3 11.5233 1822.32 11.219 1822.34 10.911C1822.38 10.5957 1822.43 10.295 1822.5 10.009C1822.57 9.723 1822.66 9.46267 1822.75 9.228H1823.66C1823.54 9.54333 1823.44 9.91733 1823.38 10.35C1823.32 10.7827 1823.29 11.274 1823.29 11.824C1823.29 12.4473 1823.42 12.9277 1823.66 13.265C1823.91 13.6097 1824.27 13.782 1824.72 13.782H1825.26C1825.69 13.782 1826.03 13.716 1826.3 13.584C1826.58 13.4593 1826.78 13.265 1826.91 13.001C1827.04 12.7443 1827.11 12.4217 1827.11 12.033V3.64H1828.04V11.142H1829.25C1829.29 11.142 1829.31 11.1567 1829.31 11.186V11.945C1829.31 11.9817 1829.29 12 1829.25 12H1828.04ZM1829.15 12C1829.11 12 1829.09 11.9817 1829.09 11.945V11.186C1829.09 11.1567 1829.11 11.142 1829.15 11.142H1830.49V6.995H1831.42V9.03C1831.65 8.48 1831.92 8.02167 1832.23 7.655C1832.54 7.28833 1832.89 7.01333 1833.26 6.83C1833.64 6.64667 1834.04 6.555 1834.47 6.555C1835.3 6.555 1835.93 6.78233 1836.35 7.237C1836.78 7.68433 1836.99 8.38833 1836.99 9.349V11.142H1838.44C1838.48 11.142 1838.5 11.1567 1838.5 11.186V11.945C1838.5 11.9817 1838.48 12 1838.44 12H1829.15ZM1836.06 11.142V9.393C1836.06 8.71833 1835.9 8.22333 1835.6 7.908C1835.31 7.58533 1834.87 7.424 1834.27 7.424C1833.9 7.424 1833.54 7.53033 1833.21 7.743C1832.87 7.94833 1832.55 8.26 1832.25 8.678C1831.96 9.096 1831.68 9.61667 1831.42 10.24V11.142H1836.06ZM1839.64 5.62C1839.47 5.62 1839.33 5.56867 1839.2 5.466C1839.08 5.36333 1839.02 5.19467 1839.02 4.96C1839.02 4.72533 1839.08 4.55667 1839.2 4.454C1839.33 4.35133 1839.47 4.3 1839.64 4.3C1839.83 4.3 1839.98 4.35867 1840.09 4.476C1840.2 4.586 1840.26 4.74733 1840.26 4.96C1840.26 5.17267 1840.2 5.33767 1840.09 5.455C1839.98 5.565 1839.83 5.62 1839.64 5.62ZM1841.54 5.62C1841.35 5.62 1841.2 5.565 1841.09 5.455C1840.98 5.33767 1840.93 5.17267 1840.93 4.96C1840.93 4.74733 1840.98 4.586 1841.09 4.476C1841.2 4.35867 1841.35 4.3 1841.54 4.3C1841.74 4.3 1841.89 4.36233 1841.99 4.487C1842.1 4.60433 1842.16 4.762 1842.16 4.96C1842.16 5.158 1842.1 5.31933 1841.99 5.444C1841.89 5.56133 1841.74 5.62 1841.54 5.62ZM1838.33 12C1838.3 12 1838.28 11.9817 1838.28 11.945V11.186C1838.28 11.1567 1838.3 11.142 1838.33 11.142H1840.11V6.665H1841.09V11.142H1842.74C1842.78 11.142 1842.8 11.1567 1842.8 11.186V11.945C1842.8 11.9817 1842.78 12 1842.74 12H1838.33ZM1842.63 12C1842.59 12 1842.57 11.9817 1842.57 11.945V11.186C1842.57 11.1567 1842.59 11.142 1842.63 11.142H1843.99C1843.85 10.7827 1843.75 10.449 1843.68 10.141C1843.62 9.82567 1843.59 9.53233 1843.59 9.261C1843.59 8.93833 1843.62 8.63033 1843.68 8.337C1843.75 8.04367 1843.85 7.76867 1843.98 7.512C1844.25 7.28467 1844.56 7.105 1844.91 6.973C1845.26 6.841 1845.62 6.775 1845.99 6.775C1846.45 6.775 1846.85 6.874 1847.2 7.072C1847.55 7.27733 1847.81 7.567 1848 7.941C1848.19 8.315 1848.28 8.73667 1848.28 9.206C1848.28 9.49933 1848.26 9.77067 1848.21 10.02C1848.15 10.262 1848.08 10.4893 1847.97 10.702C1847.76 11.12 1847.46 11.4427 1847.08 11.67C1846.7 11.89 1846.27 12 1845.77 12H1842.63ZM1844.58 9.074C1844.58 9.41133 1844.6 9.745 1844.66 10.075C1844.72 10.405 1844.83 10.7607 1844.99 11.142H1845.77C1846.1 11.142 1846.38 11.0687 1846.6 10.922C1846.83 10.768 1847 10.548 1847.12 10.262C1847.23 9.96867 1847.29 9.613 1847.29 9.195C1847.29 8.733 1847.16 8.35533 1846.91 8.062C1846.66 7.76867 1846.35 7.622 1845.99 7.622C1845.76 7.622 1845.53 7.666 1845.3 7.754C1845.08 7.83467 1844.88 7.941 1844.71 8.073C1844.65 8.227 1844.61 8.38467 1844.6 8.546C1844.58 8.70733 1844.58 8.88333 1844.58 9.074Z" fill="#5D6E82"/>
<path d="M166.763 0.0746751C166.91 0.165778 167 0.326712 167 0.500001V15.5C167 15.7761 166.776 16 166.5 16H163.5C163.224 16 163 15.7761 163 15.5V14H162V15.5C162 15.7761 161.776 16 161.5 16H152.5C152.224 16 152 15.7761 152 15.5V10C152 9.78479 152.138 9.59372 152.342 9.52566L158 7.63962V4.5C158 4.31061 158.107 4.13748 158.276 4.05279L166.276 0.0527869C166.431 -0.0247102 166.615 -0.0164282 166.763 0.0746751ZM158 8.69371L153 10.3604V15H158V8.69371ZM159 15H161V13.5C161 13.2239 161.224 13 161.5 13H163.5C163.776 13 164 13.2239 164 13.5V15H166V1.30902L159 4.80902V15Z" fill="#9DA9BB"/>
<path d="M154 11H155V12H154V11Z" fill="#9DA9BB"/>
<path d="M156 11H157V12H156V11Z" fill="#9DA9BB"/>
<path d="M154 13H155V14H154V13Z" fill="#9DA9BB"/>
<path d="M156 13H157V14H156V13Z" fill="#9DA9BB"/>
<path d="M160 9H161V10H160V9Z" fill="#9DA9BB"/>
<path d="M162 9H163V10H162V9Z" fill="#9DA9BB"/>
<path d="M160 11H161V12H160V11Z" fill="#9DA9BB"/>
<path d="M162 11H163V12H162V11Z" fill="#9DA9BB"/>
<path d="M164 9H165V10H164V9Z" fill="#9DA9BB"/>
<path d="M164 11H165V12H164V11Z" fill="#9DA9BB"/>
<path d="M160 7H161V8H160V7Z" fill="#9DA9BB"/>
<path d="M162 7H163V8H162V7Z" fill="#9DA9BB"/>
<path d="M164 7H165V8H164V7Z" fill="#9DA9BB"/>
<path d="M160 5H161V6H160V5Z" fill="#9DA9BB"/>
<path d="M162 5H163V6H162V5Z" fill="#9DA9BB"/>
<path d="M164 5H165V6H164V5Z" fill="#9DA9BB"/>
<path d="M164 3H165V4H164V3Z" fill="#9DA9BB"/>
<path d="M440.621 8.62069C442.449 8.62069 443.931 7.1386 443.931 5.31034C443.931 3.48209 442.449 2 440.621 2C438.792 2 437.31 3.48209 437.31 5.31034C437.31 7.1386 438.792 8.62069 440.621 8.62069ZM442.828 5.31034C442.828 6.52918 441.84 7.51724 440.621 7.51724C439.402 7.51724 438.414 6.52918 438.414 5.31034C438.414 4.09151 439.402 3.10345 440.621 3.10345C441.84 3.10345 442.828 4.09151 442.828 5.31034Z" fill="#9DA9BB"/>
<path d="M447.241 14.1379C447.241 15.2414 446.138 15.2414 446.138 15.2414H435.103C435.103 15.2414 434 15.2414 434 14.1379C434 13.0345 435.103 9.72414 440.621 9.72414C446.138 9.72414 447.241 13.0345 447.241 14.1379ZM446.138 14.1341C446.136 13.8618 445.968 13.046 445.22 12.2975C444.5 11.5778 443.147 10.8276 440.621 10.8276C438.095 10.8276 436.741 11.5778 436.022 12.2975C435.273 13.046 435.105 13.8618 435.103 14.1341H446.138Z" fill="#9DA9BB"/>
</svg>
