<svg width="22" height="22" viewBox="0 0 22 22" fill="none" xmlns="http://www.w3.org/2000/svg">
<path d="M11.4861 1.57636C11.2177 1.30788 10.7823 1.30788 10.5139 1.57636L2.26386 9.82636C2.13493 9.9553 2.0625 10.1302 2.0625 10.3125V19.9375C2.0625 20.3172 2.3703 20.625 2.75 20.625H8.9375C9.3172 20.625 9.625 20.3172 9.625 19.9375V14.4375H12.375V19.9375C12.375 20.3172 12.6828 20.625 13.0625 20.625H19.25C19.6297 20.625 19.9375 20.3172 19.9375 19.9375V10.3125C19.9375 10.1302 19.8651 9.9553 19.7361 9.82636L17.875 7.96523V3.4375C17.875 3.0578 17.5672 2.75 17.1875 2.75H15.8125C15.4328 2.75 15.125 3.0578 15.125 3.4375V5.21523L11.4861 1.57636ZM3.4375 19.25V10.5973L11 3.03477L18.5625 10.5973V19.25H13.75V13.75C13.75 13.3703 13.4422 13.0625 13.0625 13.0625H8.9375C8.5578 13.0625 8.25 13.3703 8.25 13.75V19.25H3.4375Z" fill="#525B75"/>
</svg>
