<svg width="22" height="22" viewBox="0 0 22 22" fill="none" xmlns="http://www.w3.org/2000/svg">
<path d="M8.25041 0.382668C8.50094 0.688098 8.58646 1.14841 8.36096 1.56217C7.59014 2.97652 7.15207 4.59665 7.15207 6.32068C7.15207 11.8488 11.6604 16.325 17.2152 16.325C17.939 16.325 18.6442 16.2491 19.3234 16.1052C19.7879 16.0068 20.2103 16.2168 20.4368 16.5393C20.6704 16.8722 20.7194 17.3687 20.3938 17.7684C18.2921 20.3479 15.0766 22 11.4724 22C5.13346 22 0 16.8937 0 10.6013C0 5.86548 2.90695 1.80395 7.04487 0.0826208C7.52295 -0.116258 7.9919 0.0675031 8.25041 0.382668ZM6.67971 1.80213C3.54063 3.49564 1.40925 6.80088 1.40925 10.6013C1.40925 16.1294 5.91759 20.6056 11.4724 20.6056C14.2719 20.6056 16.8047 19.4697 18.63 17.6335C18.1662 17.6902 17.694 17.7194 17.2152 17.7194C10.8763 17.7194 5.74282 12.6131 5.74282 6.32068C5.74282 4.71645 6.07675 3.18825 6.67971 1.80213Z" fill="#5D6E82"/>
</svg>
