<svg width="16" height="16" viewBox="0 0 16 16" fill="none" xmlns="http://www.w3.org/2000/svg">
<path d="M8.62069 8.62069C10.4489 8.62069 11.931 7.1386 11.931 5.31034C11.931 3.48209 10.4489 2 8.62069 2C6.79244 2 5.31034 3.48209 5.31034 5.31034C5.31034 7.1386 6.79244 8.62069 8.62069 8.62069ZM10.8276 5.31034C10.8276 6.52918 9.83952 7.51724 8.62069 7.51724C7.40185 7.51724 6.41379 6.52918 6.41379 5.31034C6.41379 4.09151 7.40185 3.10345 8.62069 3.10345C9.83952 3.10345 10.8276 4.09151 10.8276 5.31034Z" fill="#525B75"/>
<path d="M15.2414 14.1379C15.2414 15.2414 14.1379 15.2414 14.1379 15.2414H3.10345C3.10345 15.2414 2 15.2414 2 14.1379C2 13.0345 3.10345 9.72414 8.62069 9.72414C14.1379 9.72414 15.2414 13.0345 15.2414 14.1379ZM14.1379 14.1341C14.1363 13.8618 13.9682 13.046 13.2197 12.2975C12.5 11.5778 11.1466 10.8276 8.62068 10.8276C6.09477 10.8276 4.74136 11.5778 4.02162 12.2975C3.27311 13.046 3.10502 13.8618 3.10345 14.1341H14.1379Z" fill="#525B75"/>
</svg>
