<svg width="22" height="22" viewBox="0 0 22 22" fill="none" xmlns="http://www.w3.org/2000/svg">
<path d="M10.3125 1.375V11H11.6875V1.375H10.3125Z" fill="#5D6E82"/>
<path d="M4.125 12.1171C4.125 9.52956 5.5542 7.27487 7.66954 6.10107L7.00238 4.89877C4.46789 6.30516 2.75 9.01005 2.75 12.1171C2.75 16.6735 6.44365 20.3671 11 20.3671C15.5563 20.3671 19.25 16.6735 19.25 12.1171C19.25 9.06258 17.5896 6.39666 15.1255 4.97123L14.437 6.16144C16.4937 7.3512 17.875 9.57326 17.875 12.1171C17.875 15.9141 14.797 18.9921 11 18.9921C7.20304 18.9921 4.125 15.9141 4.125 12.1171Z" fill="#5D6E82"/>
</svg>
