<svg width="14" height="15" viewBox="0 0 14 15" fill="none" xmlns="http://www.w3.org/2000/svg">
<path d="M13.625 12.2334C14 12.6334 14 13.2584 13.625 13.6584C13.225 14.0334 12.6 14.0334 12.2 13.6584L9.225 10.6584C8.2 11.3334 6.95 11.6834 5.6 11.5084C3.3 11.1834 1.45 9.30837 1.15 7.03337C0.725 3.63337 3.6 0.758374 7 1.18337C9.275 1.48337 11.15 3.33337 11.475 5.63337C11.65 6.98337 11.3 8.23337 10.625 9.23337L13.625 12.2334ZM3.1 6.33337C3.1 8.10837 4.525 9.53337 6.3 9.53337C8.05 9.53337 9.5 8.10837 9.5 6.33337C9.5 4.58337 8.05 3.13337 6.3 3.13337C4.525 3.13337 3.1 4.58337 3.1 6.33337Z" fill="#8A94AD"/>
</svg>
